<?xml version="1.0" encoding="UTF-8" standalone="no"?>
<!-- Created with Inkscape (http://www.inkscape.org/) -->

<svg
   width="100"
   height="100"
   viewBox="0 0 26.458333 26.458333"
   version="1.1"
   id="svg1"
   xml:space="preserve"
   sodipodi:docname="break-pause.svg"
   inkscape:version="1.4.4 (dcaf3e7, 2026-05-05)"
   xmlns:inkscape="http://www.inkscape.org/namespaces/inkscape"
   xmlns:sodipodi="http://sodipodi.sourceforge.net/DTD/sodipodi-0.dtd"
   xmlns="http://www.w3.org/2000/svg"
   xmlns:svg="http://www.w3.org/2000/svg"><sodipodi:namedview
     id="namedview1"
     pagecolor="#505050"
     bordercolor="#ffffff"
     borderopacity="1"
     inkscape:showpageshadow="0"
     inkscape:pageopacity="0"
     inkscape:pagecheckerboard="1"
     inkscape:deskcolor="#505050"
     inkscape:document-units="mm"
     inkscape:zoom="2.0452292"
     inkscape:cx="188.73191"
     inkscape:cy="188.97638"
     inkscape:window-width="3200"
     inkscape:window-height="1711"
     inkscape:window-x="2391"
     inkscape:window-y="-9"
     inkscape:window-maximized="1"
     inkscape:current-layer="svg1" /><defs
     id="defs1" /><g
     id="layer1"
     transform="translate(-36.770833,-36.770833)"><g
       id="g16"
       transform="matrix(0.31024795,0,0,0.31024795,36.190088,36.019451)"
       style="display:inline"><path
         d="m 36,27 c -2,-3 -2,-6 0,-9"
         fill="none"
         stroke="#000000"
         stroke-width="3"
         stroke-linecap="round"
         id="path11" /><path
         d="m 45,27 c -2,-3 -2,-6 0,-9"
         fill="none"
         stroke="#000000"
         stroke-width="3"
         stroke-linecap="round"
         id="path12" /><path
         d="m 26,31 h 30 v 9.981669 M 46.868555,65.587725 C 44.880463,66.550586 42.826676,67 41,67 33,67 26,60 26,49 V 31"
         fill="none"
         stroke="#000000"
         stroke-width="3.2"
         stroke-linejoin="round"
         stroke-linecap="round"
         id="path13" /><path
         d="m 26,38 h -8 c -5,0 -6,3 -6,7 0,4 1,7 6,7 h 8"
         fill="none"
         stroke="#000000"
         stroke-width="3.2"
         stroke-linecap="round"
         stroke-linejoin="round"
         id="path14" /><circle
         cx="63"
         cy="58"
         r="14.5"
         fill="none"
         stroke="#000000"
         stroke-width="2.25"
         id="circle14" /><rect
         x="59"
         y="50"
         width="2.5"
         height="16"
         rx="1.4"
         fill="#000000"
         id="rect14" /><rect
         x="65"
         y="50"
         width="2.5"
         height="16"
         rx="1.4"
         fill="#000000"
         id="rect15" /></g></g></svg>
