<?xml version="1.0" encoding="UTF-8" standalone="no"?>
<!-- Created with Inkscape (http://www.inkscape.org/) -->

<svg
   width="18.051197mm"
   height="15.114323mm"
   viewBox="0 0 18.051197 15.114323"
   version="1.1"
   id="svg1"
   xmlns="http://www.w3.org/2000/svg"
   xmlns:svg="http://www.w3.org/2000/svg">
  <defs
     id="defs1" />
  <g
     id="layer1"
     transform="translate(-90.165763,-45.156797)">
    <g
       id="g16"
       transform="matrix(0.26458333,0,0,0.26458333,87.414096,40.791172)"
       style="display:inline">
      <path
         d="m 36,27 c -2,-3 -2,-6 0,-9"
         fill="none"
         stroke="#000000"
         stroke-width="3"
         stroke-linecap="round"
         id="path11" />
      <path
         d="m 45,27 c -2,-3 -2,-6 0,-9"
         fill="none"
         stroke="#000000"
         stroke-width="3"
         stroke-linecap="round"
         id="path12" />
      <path
         d="m 26,31 h 30 v 9.981669 M 46.868555,65.587725 C 44.880463,66.550586 42.826676,67 41,67 33,67 26,60 26,49 V 31"
         fill="none"
         stroke="#000000"
         stroke-width="3.2"
         stroke-linejoin="round"
         stroke-linecap="round"
         id="path13" />
      <path
         d="m 26,38 h -8 c -5,0 -6,3 -6,7 0,4 1,7 6,7 h 8"
         fill="none"
         stroke="#000000"
         stroke-width="3.2"
         stroke-linecap="round"
         stroke-linejoin="round"
         id="path14" />
      <circle
         cx="63"
         cy="58"
         r="14.5"
         fill="none"
         stroke="#000000"
         stroke-width="2.25"
         id="circle14" />
      <rect
         x="59"
         y="50"
         width="2.5"
         height="16"
         rx="1.4"
         fill="#000000"
         id="rect14" />
      <rect
         x="65"
         y="50"
         width="2.5"
         height="16"
         rx="1.4"
         fill="#000000"
         id="rect15" />
    </g>
  </g>
</svg>
