<?xml version="1.0" encoding="UTF-8" standalone="no"?>
<!-- Created with Inkscape (http://www.inkscape.org/) -->

<svg
   width="100"
   height="100"
   viewBox="0 0 26.458333 26.458332"
   version="1.1"
   id="svg1"
   xml:space="preserve"
   sodipodi:docname="pause-break.svg"
   inkscape:version="1.4.4 (dcaf3e7, 2026-05-05)"
   xmlns:inkscape="http://www.inkscape.org/namespaces/inkscape"
   xmlns:sodipodi="http://sodipodi.sourceforge.net/DTD/sodipodi-0.dtd"
   xmlns="http://www.w3.org/2000/svg"
   xmlns:svg="http://www.w3.org/2000/svg"><sodipodi:namedview
     id="namedview1"
     pagecolor="#505050"
     bordercolor="#ffffff"
     borderopacity="1"
     inkscape:showpageshadow="0"
     inkscape:pageopacity="0"
     inkscape:pagecheckerboard="1"
     inkscape:deskcolor="#505050"
     inkscape:document-units="mm"
     inkscape:zoom="1"
     inkscape:cx="188"
     inkscape:cy="188.5"
     inkscape:window-width="3200"
     inkscape:window-height="1711"
     inkscape:window-x="2391"
     inkscape:window-y="-9"
     inkscape:window-maximized="1"
     inkscape:current-layer="svg1" /><defs
     id="defs1" /><g
     id="layer1"
     transform="translate(-36.770833,-36.770833)"><g
       id="g1"
       transform="matrix(0.27064998,0,0,0.27064998,34.979845,37.280372)"><circle
         cx="46"
         cy="46"
         r="28"
         fill="none"
         stroke="#000000"
         stroke-width="3.2"
         stroke-linecap="round"
         stroke-dasharray="130, 75"
         transform="rotate(65,46,46)"
         id="circle1" /><rect
         x="37"
         y="31"
         width="7"
         height="30"
         rx="2"
         fill="#000000"
         id="rect1" /><rect
         x="48"
         y="31"
         width="7"
         height="30"
         rx="2"
         fill="#000000"
         id="rect2" /><path
         d="m 72,48 c -2,-3 -2,-6 0,-9"
         fill="none"
         stroke="#000000"
         stroke-width="3"
         stroke-linecap="round"
         id="path2" /><path
         d="m 79,48 c -2,-3 -2,-6 0,-9"
         fill="none"
         stroke="#000000"
         stroke-width="3"
         stroke-linecap="round"
         id="path3" /><path
         d="M 65,52 H 84 V 65 C 84,72 79,76 73,76 67,76 62,72 62,65 V 52 h 3"
         fill="none"
         stroke="#000000"
         stroke-width="3.2"
         stroke-linejoin="round"
         id="path4" /><path
         d="m 84,56 h 5 c 3,0 4,2 4,5 0,3 -1,5 -4,5 h -5"
         fill="none"
         stroke="#000000"
         stroke-width="3.2"
         stroke-linecap="round"
         stroke-linejoin="round"
         id="path5" /></g></g></svg>
