<?xml version="1.0" encoding="UTF-8" standalone="no"?>
<!-- Created with Inkscape (http://www.inkscape.org/) -->

<svg
   width="100mm"
   height="100mm"
   viewBox="0 0 100 100"
   version="1.1"
   id="svg1"
   xml:space="preserve"
   xmlns="http://www.w3.org/2000/svg"
   xmlns:svg="http://www.w3.org/2000/svg"><defs
     id="defs1" /><g
     id="layer1"><g
       id="g1"
       transform="matrix(0.27064998,0,0,0.27064998,34.979845,37.280372)"><circle
         cx="46"
         cy="46"
         r="28"
         fill="none"
         stroke="#000000"
         stroke-width="3.2"
         stroke-linecap="round"
         stroke-dasharray="130, 75"
         transform="rotate(65,46,46)"
         id="circle1" /><rect
         x="37"
         y="31"
         width="7"
         height="30"
         rx="2"
         fill="#000000"
         id="rect1" /><rect
         x="48"
         y="31"
         width="7"
         height="30"
         rx="2"
         fill="#000000"
         id="rect2" /><path
         d="m 72,48 c -2,-3 -2,-6 0,-9"
         fill="none"
         stroke="#000000"
         stroke-width="3"
         stroke-linecap="round"
         id="path2" /><path
         d="m 79,48 c -2,-3 -2,-6 0,-9"
         fill="none"
         stroke="#000000"
         stroke-width="3"
         stroke-linecap="round"
         id="path3" /><path
         d="M 65,52 H 84 V 65 C 84,72 79,76 73,76 67,76 62,72 62,65 V 52 h 3"
         fill="none"
         stroke="#000000"
         stroke-width="3.2"
         stroke-linejoin="round"
         id="path4" /><path
         d="m 84,56 h 5 c 3,0 4,2 4,5 0,3 -1,5 -4,5 h -5"
         fill="none"
         stroke="#000000"
         stroke-width="3.2"
         stroke-linecap="round"
         stroke-linejoin="round"
         id="path5" /></g></g></svg>
