<?xml version="1.0" encoding="UTF-8" standalone="no"?>
<svg
   version="1.1"
   width="100"
   height="100"
   viewBox="0 0 100 100"
   id="svg9"
   sodipodi:docname="scroll-lock.svg"
   inkscape:version="1.4.4 (dcaf3e7, 2026-05-05)"
   xmlns:inkscape="http://www.inkscape.org/namespaces/inkscape"
   xmlns:sodipodi="http://sodipodi.sourceforge.net/DTD/sodipodi-0.dtd"
   xmlns="http://www.w3.org/2000/svg"
   xmlns:svg="http://www.w3.org/2000/svg">
  <sodipodi:namedview
     id="namedview1"
     pagecolor="#505050"
     bordercolor="#ffffff"
     borderopacity="1"
     inkscape:showpageshadow="0"
     inkscape:pageopacity="0"
     inkscape:pagecheckerboard="1"
     inkscape:deskcolor="#505050"
     inkscape:zoom="0.61642743"
     inkscape:cx="626.18888"
     inkscape:cy="625.37775"
     inkscape:window-width="3200"
     inkscape:window-height="1711"
     inkscape:window-x="2391"
     inkscape:window-y="-9"
     inkscape:window-maximized="1"
     inkscape:current-layer="svg9"
     inkscape:document-units="in" />
  <defs
     id="defs2">
    <mask
       id="transparent-cutouts"
       maskUnits="userSpaceOnUse"
       maskContentUnits="userSpaceOnUse"
       x="-200"
       y="-200"
       width="1700"
       height="1700">
      <rect
         x="0"
         y="0"
         width="1254"
         height="1254"
         fill="#ffffff"
         id="rect1" />
      <path
         d="m 0,0 c 15.425634,12.151434 24.724786,28.517085 27.587585,47.8414 1.037105,9.0343 0.65282,18.226153 0.607727,27.303131 -0.0037,2.223444 -0.0066,4.446889 -0.0086,6.670334 -0.0076,5.811373 -0.02719,11.622643 -0.04941,17.433975 -0.02057,5.94634 -0.02962,11.89269 -0.03967,17.83905 C 28.076299,128.7253 28.042228,140.36264 28,152 c -14.708252,0.0936 -29.4164637,0.16407 -44.124953,0.20725 -6.830114,0.0206 -13.660042,0.0486 -20.490037,0.0945 -6.594118,0.0443 -13.188094,0.0674 -19.782366,0.0778 -2.512944,0.007 -5.025877,0.0218 -7.538738,0.0434 -3.526008,0.0291 -7.051225,0.033 -10.577334,0.0312 -1.033626,0.0144 -2.067253,0.0288 -3.132202,0.0436 -8.351157,-0.0473 -15.607573,-2.16944 -21.944214,-7.88831 -6.704906,-7.65213 -9.641436,-16.09118 -9.700686,-26.20263 -0.007,-0.72474 -0.0134,-1.44948 -0.0203,-2.19618 -0.0189,-2.38016 -0.0229,-4.76002 -0.0251,-7.14025 -0.006,-1.67563 -0.0132,-3.35126 -0.0202,-5.02688 -0.0119,-3.5119 -0.0157,-7.023701 -0.0145,-10.535618 2.1e-4,-4.452134 -0.027,-8.903621 -0.0615,-13.355604 -0.0225,-3.464644 -0.0263,-6.92914 -0.0252,-10.39385 -0.002,-1.638295 -0.011,-3.276596 -0.0267,-4.914818 -0.19827,-22.87028 5.53924,-42.314655 21.722331,-59.1755713 C -63.572723,-17.570887 -26.829569,-20.257364 0,0 Z"
         fill="#000000"
         transform="translate(299,159)"
         id="path1" />
      <path
         d="M 0,0 C 1.0621875,0.3403125 2.124375,0.680625 3.21875,1.03125 15.897063,5.498846 26.508339,12.541012 36,22 c 1.046074,1.01127 1.046074,1.01127 2.113281,2.042969 C 60.880352,47.605782 56,79.756053 56,111 c -53.13,0 -106.26,0 -161,0 0,-57.040159 0,-57.040159 6.75,-69.375 0.351431,-0.667896 0.702861,-1.335791 1.064941,-2.023926 C -94.307789,34.27054 -91.088271,29.486095 -87,25 c 0.71543,-0.806953 1.430859,-1.613906 2.167969,-2.445313 C -63.741587,0.05362666 -29.58802,-9.6550382 0,0 Z"
         fill="#000000"
         transform="translate(937,691)"
         id="path2" />
    </mask>
  </defs>
  <g
     mask="url(#transparent-cutouts)"
     id="g9"
     transform="matrix(0.08089414,0,0,0.08089414,-0.39382798,0.00548422)">
    <path
       d="m 0,0 c 2.560607,-0.00345908 5.1212125,-0.00822533 7.6818149,-0.01418173 5.5549351,-0.01079705 11.1097831,-0.01052989 16.6647221,-0.0028585 8.260776,0.01137693 16.52148,0.0055309 24.782256,-0.0036249 14.757349,-0.01577801 29.514659,-0.01443551 44.272011,-0.0057633 12.917066,0.0075533 25.834126,0.0095137 38.751196,0.0059321 0.85756,-2.2915e-4 1.71512,-4.5831e-4 2.59867,-6.9441e-4 3.48136,-9.3405e-4 6.96271,-0.0018893 10.44407,-0.0028793 32.64755,-0.0091736 65.29508,-8.626e-4 97.94263,0.01529069 28.98333,0.01423133 57.96663,0.01296681 86.94997,-0.00138297 32.58265,-0.016078 65.16528,-0.02242559 97.74793,-0.01316321 3.47617,9.621e-4 6.95234,0.0019006 10.42852,0.0028292 0.85588,2.3723e-4 1.71177,4.7447e-4 2.59359,7.1889e-4 12.90381,0.0034071 25.80761,-5.686e-4 38.71141,-0.0081575 14.68079,-0.0085911 29.36154,-0.0064051 44.04232,0.0098422 8.20825,0.00878544 16.41639,0.00941797 24.62463,-0.0019385 6.13992,-0.0075551 12.27973,6.8539e-4 18.41963,0.01492372 2.47567,0.00333833 4.95136,0.00167523 7.42702,-0.00562736 30.11197,-0.08197669 56.0063,5.72923258 78.07673,27.38387288 19.67021,20.366203 26.15379,45.894054 26.05691,73.420712 8.8e-4,1.85415 0.003,3.70829 0.005,5.56243 0.004,5.06942 -0.004,10.13876 -0.0136,15.20817 -0.009,5.47633 -0.006,10.95265 -0.004,16.42897 10e-4,9.47964 -0.005,18.95924 -0.0165,28.43887 -0.0163,13.70583 -0.0215,27.41165 -0.024,41.11749 -0.004,22.23849 -0.0177,44.47697 -0.0366,66.71545 -0.0184,21.59863 -0.0325,43.19726 -0.041,64.7959 -2.6e-4,0.66626 -5.3e-4,1.33253 -8e-4,2.01898 -0.003,7.35513 -0.006,14.71025 -0.008,22.06538 -0.0207,55.41183 -0.0561,110.82365 -0.10065,166.23546 -6.93,-1.32 -13.86,-2.64 -21,-4 -10e-4,-2.26928 -0.003,-4.53855 -0.004,-6.87659 -0.0354,-53.8881 -0.092,-107.77613 -0.17348,-161.66417 -0.01,-6.6351 -0.0199,-13.27019 -0.0296,-19.90528 -0.001,-0.99038 -0.001,-0.99038 -0.003,-2.00077 -0.0323,-22.04523 -0.0506,-44.09044 -0.0627,-66.13569 -0.0124,-21.94156 -0.0399,-43.88305 -0.0814,-65.82457 -0.0251,-13.53518 -0.0385,-27.07026 -0.0368,-40.60546 3e-5,-9.2861 -0.0146,-18.5721 -0.0407,-27.85817 -0.0146,-5.35469 -0.0229,-10.7092 -0.0136,-16.06391 0.008,-4.91011 -0.002,-9.81982 -0.0265,-14.72987 -0.006,-1.76875 -0.005,-3.53754 0.004,-5.306284 0.0941,-21.345156 -5.32752,-40.239568 -20.53149,-56.029235 -7.29071,-7.020271 -15.52135,-12.392034 -25,-16 -0.87605,-0.334908 -1.75211,-0.669816 -2.65472,-1.014873 -11.34356,-3.775337 -22.33671,-3.532922 -34.17471,-3.466145 -2.3096,-0.0017 -4.6192,-0.0053 -6.92879,-0.01036 -6.31915,-0.0089 -12.63803,0.007 -18.95714,0.02711 -6.12289,0.01751 -12.24579,0.01215 -18.3687,0.0093 -12.5168,-0.0052 -25.03351,0.0081 -37.55028,0.03207 -12.38645,0.0237 -24.77285,0.03907 -37.15931,0.04341 -1.15685,4.12e-4 -1.15685,4.12e-4 -2.33707,8.33e-4 -3.91698,0.0014 -7.83396,0.0026 -11.75094,0.0037 -27.71688,0.0084 -55.43371,0.03532 -83.15056,0.07321 -26.92025,0.03676 -53.84048,0.06508 -80.76074,0.08203 -1.24553,7.9e-4 -1.24553,7.9e-4 -2.51621,0.0016 -8.33898,0.0053 -16.67796,0.01038 -25.01694,0.01535 -16.98623,0.01014 -33.97247,0.02143 -50.95871,0.0334 -1.1714,8.24e-4 -1.1714,8.24e-4 -2.36647,0.0017 -52.11625,0.03678 -104.232481,0.100241 -156.348705,0.167709 1.240778,1.220249 1.240778,1.220249 2.506622,2.465149 1.094468,1.083397 2.188768,2.166963 3.282929,3.250671 0.54413,0.534246 1.08826,1.068492 1.64888,1.618927 4.148242,4.118518 7.514151,8.33647 10.436569,13.415253 0.67277,1.135986 0.67277,1.135986 1.359131,2.294922 8.577703,14.927471 12.079402,29.567754 12.021995,46.716782 0.0026,1.380098 0.006,2.760194 0.01029,4.140287 0.0091,3.785354 0.0059,7.570614 6.49e-4,11.355974 -0.0035,4.12089 0.0046,8.24175 0.01122,12.36263 0.01004,7.22006 0.01272,14.4401 0.01058,21.66016 -0.0031,10.73643 0.0052,21.47283 0.01596,32.20925 0.01782,18.06324 0.02667,36.12648 0.0307,54.18973 0.0056,24.66556 0.02429,49.3311 0.04644,73.99665 0.0103,11.49064 0.01997,22.98128 0.02946,34.47193 9.52e-4,1.15028 0.0019,2.30057 0.0029,3.48571 0.0225,27.37728 0.03874,54.75456 0.05395,82.13184 6.67e-4,1.19785 0.0013,2.3957 0.002,3.62984 0.01082,19.4395 0.02127,38.87899 0.03167,58.31848 0.0097,18.21677 0.01963,36.43354 0.02978,54.65031 6.65e-4,1.19736 0.0013,2.39472 0.002,3.62836 0.01521,27.33188 0.03221,54.66375 0.05482,81.99562 9.49e-4,1.14842 0.0019,2.29683 0.0029,3.48005 0.0095,11.46433 0.01935,22.92866 0.02964,34.39298 0.02206,24.63944 0.03863,49.27887 0.04413,73.91832 0.0041,17.95811 0.01497,35.9162 0.03298,53.8743 0.01046,10.67385 0.01526,21.34766 0.0121,32.02151 -0.0016,7.12602 0.004,14.25202 0.01551,21.37803 0.0063,4.06252 0.0095,8.12497 0.0038,12.18749 -0.0051,3.69669 -9.7e-4,7.39325 0.01043,11.08992 0.0037,1.95384 -0.0025,3.90769 -0.009,5.86152 0.03029,6.54528 0.467231,12.50551 2.268919,18.8074 0.201569,0.73572 0.403138,1.47144 0.610816,2.22945 5.009943,17.55353 17.377271,32.835 33.049335,41.96586 20.09012,11.05862 45.13881,13.70097 67.35156,7.78125 21.66454,-7.07991 38.52948,-17.84285 49.76953,-38.20312 6.49643,-13.34315 7.75471,-25.71291 7.71973,-40.33618 -9.7e-4,-2.86617 0.0408,-5.72967 0.085,-8.59546 0.0908,-13.93278 -1.85794,-24.39778 -10.2539,-35.93946 -1.33204,-1.90234 -1.33204,-1.90234 -2.25782,-4.02343 -1.36067,-2.37994 -2.59608,-2.78816 -5.07422,-3.87891 -1.33285,-0.95128 -2.6452,-1.93181 -3.9375,-2.9375 -12.62038,-9.81028 -25.70575,-10.61981 -41.0625,-10.5625 -3.29224,0.0121 -6.58289,-0.002 -9.875,-0.0312 -0.74274,0.0113 -1.48548,0.0226 -2.25073,0.0343 -3.67482,-0.0358 -5.70282,-0.3922 -8.81958,-2.40735 -2.77951,-2.83499 -3.26027,-4.53122 -3.42969,-8.4082 -0.049,-0.75926 -0.098,-1.51851 -0.14843,-2.30078 0.81604,-3.7209 2.55294,-5.05219 5.52343,-7.38672 3.06539,-0.72033 6.04601,-0.6779 9.1836,-0.62891 0.89195,-0.002 1.78391,-0.005 2.70289,-0.007 1.88872,9.7e-4 3.77746,0.0144 5.66601,0.0393 2.84486,0.0339 5.68655,0.0208 8.53149,10e-4 22.99144,0.0168 40.18505,7.4226 56.97851,23.2207 13.56229,13.89923 19.02634,29.92628 19.17579,48.875 0.008,0.99395 0.0161,1.9879 0.0245,3.01196 0.0138,2.09772 0.0245,4.19547 0.0324,6.29322 0.0115,2.11562 0.0319,4.23123 0.0615,6.34668 0.34978,25.01599 -4.80645,45.77062 -20.35669,65.84814 -4.62,4.62 -9.24,9.24 -14,14 77.22,0.33 154.44,0.66 234,1 0.62219,5.59963 1.12074,10.52999 1.0625,16.0625 -0.009,1.12535 -0.018,2.2507 -0.0273,3.41016 -0.0174,1.25103 -0.0174,1.25103 -0.0352,2.52734 -39.95011,0.0917 -79.90022,0.16211 -119.85042,0.20426 -4.72352,0.005 -9.44705,0.0102 -14.17057,0.0155 -0.94031,10e-4 -1.88063,0.002 -2.84943,0.003 -15.19715,0.0174 -30.39423,0.0489 -45.59133,0.0857 -15.61008,0.0375 -31.22012,0.0596 -46.83024,0.0677 -9.6213,0.005 -19.24242,0.0227 -28.86367,0.0553 -6.61034,0.0213 -13.22059,0.0275 -19.83096,0.0223 -3.8058,-0.003 -7.6113,10e-4 -11.41705,0.0228 -33.60736,0.18154 -62.00877,-5.70316 -87.221321,-29.60182 -6.125681,-6.30272 -10.79312,-13.4054 -15.375,-20.875 -0.525938,-0.8366 -1.051875,-1.6732 -1.59375,-2.53516 -11.118031,-18.67693 -10.840283,-39.84604 -10.767014,-60.81834 3.64e-4,-2.78894 -0.0038,-5.57787 -0.0078,-8.36681 -0.0062,-6.04717 -0.0013,-12.09426 0.01091,-18.14142 0.01817,-8.99177 0.019,-17.98348 0.01638,-26.97527 -0.0039,-15.12862 0.0061,-30.2572 0.02405,-45.38581 0.01777,-14.97295 0.0293,-29.94588 0.03256,-44.91884 2.06e-4,-0.93198 4.13e-4,-1.86396 6.25e-4,-2.82418 10e-4,-4.73332 0.0019,-9.46663 0.0028,-14.19995 0.0063,-33.50082 0.02649,-67.00162 0.05491,-100.50243 0.02757,-32.53971 0.04881,-65.07942 0.06152,-97.61914 3.95e-4,-1.00353 7.89e-4,-2.00706 0.0012,-3.04099 0.004,-10.0781 0.0078,-20.15619 0.01152,-30.23428 0.0076,-20.5291 0.01607,-41.0582 0.02505,-61.5873 6.18e-4,-1.41575 6.18e-4,-1.41575 0.0012,-2.8601 0.02759,-62.99667 0.07512,-125.99333 0.125781,-188.98998 -0.548852,0.003 -1.097704,0.006 -1.663187,0.008 -13.415616,0.0665 -26.831202,0.11584 -40.2469484,0.14706 -6.4880256,0.0156 -12.9759314,0.0367 -19.4638886,0.0709 -6.269964,0.0328 -12.539813,0.0506 -18.809856,0.0583 -2.3832,0.006 -4.766393,0.0163 -7.149544,0.0326 -21.329764,0.13987 -38.433816,-0.86868 -54.580639,-16.12578 -12.846888,-13.61092 -15.726298,-31.35468 -15.546868,-49.25391 0.002,-1.60555 0.003,-3.2111 0.003,-4.81665 0.003,-3.34157 0.0195,-6.68271 0.0465,-10.02417 0.034,-4.24245 0.0416,-8.48443 0.0401,-12.727 5.5e-4,-3.3084 0.0116,-6.6167 0.026,-9.92507 0.006,-1.56259 0.0103,-3.1252 0.0118,-4.6878 0.0597,-29.646603 8.023095,-54.00189 28.493877,-76.049774 5.149988,-4.909135 10.890556,-8.832259 16.839844,-12.707031 0.781172,-0.514336 1.562344,-1.028672 2.367187,-1.558594 6.658572,-4.0328326 14.180762,-6.3299958 21.632813,-8.441406 0.784574,-0.2511672 1.569148,-0.5023344 2.377496,-0.7611128 C -23.964859,-0.65234355 -12.029543,-0.03534518 0,0 Z"
       fill="#000000"
       transform="translate(276.02448,123.61905)"
       id="path3" />
    <path
       d="m 0,0 c 17.290922,14.746422 30.83496,36.295636 33.239807,59.218201 0.360319,4.728416 0.319206,9.452406 0.295349,14.191955 -0.0021,1.612308 -0.0021,1.612308 -0.0043,3.257187 -0.0056,3.402582 -0.0181,6.805096 -0.03087,10.207657 -0.005,2.31966 -0.0096,4.639322 -0.01367,6.958984 -0.01097,5.659528 -0.02767,11.319016 -0.04883,16.978516 0.749832,-0.0209 1.499663,-0.0419 2.272217,-0.0635 19.79854,-0.48077 35.18828,-0.63081 50.477783,13.31348 8.344036,8.76995 10.560499,19.90515 10.510696,31.59076 0.0038,0.96209 0.0077,1.92417 0.01159,2.91541 0.01028,3.20861 0.0063,6.41704 0.0024,9.62567 0.0044,2.3068 0.0095,4.6136 0.01549,6.92041 0.01338,6.25634 0.01397,12.51263 0.01144,18.76899 -0.0011,5.2284 0.0038,10.4568 0.0086,15.6852 0.01173,13.0445 0.01087,26.08897 0.0044,39.13347 -0.0052,11.30784 0.0061,22.61559 0.0251,33.92342 0.01941,11.63041 0.02734,23.26077 0.02388,34.89119 -0.0018,6.5217 7.97e-4,13.04332 0.01471,19.565 0.0126,6.13633 0.01061,12.27248 -0.0024,18.40879 -0.0024,2.2461 3.47e-4,4.49221 0.0086,6.73829 0.05836,17.07549 -0.478309,32.63922 -12.259533,46.2709 -7.59032,7.06037 -19.316951,12.42251 -29.689149,12.44672 -1.336231,0.007 -1.336231,0.007 -2.699457,0.0135 -0.969442,-1.8e-4 -1.938884,-3.7e-4 -2.937703,-5.6e-4 -1.037111,0.004 -2.074223,0.007 -3.142761,0.0111 -3.480449,0.011 -6.960867,0.0149 -10.44133,0.0187 -2.493552,0.006 -4.987103,0.0129 -7.480652,0.0199 -7.486359,0.0192 -14.972709,0.0298 -22.4590847,0.0387 -3.5294672,0.004 -7.0589329,0.01 -10.588399,0.015 -11.7396603,0.017 -23.4793193,0.0315 -35.2189893,0.0387 -3.044416,0.002 -6.088831,0.004 -9.133246,0.006 -0.756632,4.8e-4 -1.513264,9.6e-4 -2.292823,0.001 -12.248923,0.008 -24.497749,0.0336 -36.746629,0.0661 -12.588556,0.0331 -25.177066,0.0511 -37.765666,0.0543 -7.0628,0.002 -14.12546,0.0109 -21.18822,0.0365 -6.64762,0.024 -13.29503,0.0275 -19.9427,0.0172 -2.43477,-4.9e-4 -4.86955,0.006 -7.30429,0.0196 -17.6311,0.0939 -31.31983,-0.5184 -44.87124,-13.14653 -8.4942,-9.16422 -11.53094,-20.21782 -11.49009,-32.38142 -0.005,-0.99532 -0.009,-1.99063 -0.0137,-3.0161 -0.0126,-3.32693 -0.011,-6.6537 -0.009,-9.98065 -0.006,-2.38872 -0.0128,-4.77744 -0.0204,-7.16616 -0.0158,-5.81039 -0.0221,-11.62073 -0.0232,-17.43114 -9.5e-4,-4.72516 -0.005,-9.4503 -0.0114,-14.17545 -0.0176,-13.41035 -0.0268,-26.82066 -0.0253,-40.23102 8e-5,-0.72225 1.6e-4,-1.44449 2.4e-4,-2.18862 9e-5,-0.72313 1.7e-4,-1.44625 2.5e-4,-2.19129 8.2e-4,-11.71667 -0.0183,-23.43321 -0.0465,-35.14984 -0.0288,-12.04395 -0.0425,-24.08784 -0.0408,-36.13183 6.6e-4,-6.75641 -0.005,-13.5127 -0.0264,-20.26908 -0.0194,-6.35548 -0.0195,-12.71068 -0.005,-19.06617 0.002,-2.32918 -0.003,-4.65838 -0.0147,-6.98753 -0.0155,-3.18661 -0.006,-6.37224 0.009,-9.55883 -0.0103,-0.91548 -0.0206,-1.83097 -0.0312,-2.7742 0.11768,-11.07459 4.81104,-19.61582 12.30299,-27.51942 7.75478,-7.35831 17.11045,-11.27096 27.73829,-11.22266 1.25039,0.003 2.50078,0.006 3.78906,0.01 1.95293,0.0126 1.95293,0.0126 3.94531,0.0254 1.97613,0.007 1.97613,0.007 3.99219,0.0137 3.25265,0.0118 6.50521,0.0282 9.75781,0.0488 -0.009,-0.58865 -0.0178,-1.17731 -0.0269,-1.7838 -0.0896,-6.21479 -0.14927,-12.429389 -0.19281,-18.644667 -0.0199,-2.308995 -0.0471,-4.617941 -0.082,-6.926758 -0.44199,-29.971152 6.20536,-54.112578 27.07129,-76.37915 C -104.30237,-32.019154 -42.280973,-34.782568 0,0 Z m -207,139.5 c -0.70963,0.87205 -0.70963,0.87205 -1.43359,1.76172 -2.88665,3.96539 -2.28351,8.12791 -2.28954,12.84206 -0.005,0.97541 -0.0102,1.95082 -0.0154,2.95579 -0.0158,3.28947 -0.0243,6.57891 -0.0327,9.86841 -0.01,2.35019 -0.0194,4.70039 -0.0297,7.05058 -0.0287,7.06934 -0.0485,14.13868 -0.0654,21.20806 -0.005,1.99707 -0.01,3.99415 -0.0148,5.99122 -0.0308,12.40298 -0.0577,24.80595 -0.0744,37.20896 -0.004,2.87375 -0.008,5.7475 -0.012,8.62126 -10e-4,0.71425 -0.002,1.42851 -0.003,2.16441 -0.017,11.56251 -0.0581,23.12481 -0.10897,34.68722 -0.0518,11.87315 -0.0809,23.74619 -0.0881,35.61944 -0.005,6.66544 -0.0201,13.33056 -0.0598,19.99591 -0.0368,6.27341 -0.0453,12.54623 -0.032,18.81973 -5e-5,2.30059 -0.0104,4.60121 -0.0317,6.9017 -0.0277,3.14601 -0.0182,6.28984 4.3e-4,9.43587 -0.0168,0.90625 -0.0336,1.8125 -0.0509,2.7462 0.10136,6.87997 2.42137,11.17098 6.77915,16.43396 2.12333,2.13933 2.12333,2.13933 4.25,3.5 0.99773,0.69609 0.99773,0.69609 2.01563,1.40625 2.8487,1.79648 4.53185,2.21967 7.87529,2.22518 0.87276,0.004 1.74552,0.008 2.64474,0.0116 0.96466,-8.7e-4 1.92932,-0.002 2.92322,-0.003 1.02033,0.003 2.04066,0.006 3.09191,0.009 3.44149,0.009 6.88295,0.0102 10.32445,0.0117 2.45857,0.005 4.91714,0.01 7.37571,0.015 6.69655,0.0131 13.39309,0.0196 20.08966,0.024 4.18213,0.003 8.36425,0.007 12.54638,0.0115 11.57999,0.0122 23.15998,0.0225 34.739972,0.0259 0.741536,2.2e-4 1.483072,4.4e-4 2.247079,6.6e-4 0.743316,2.2e-4 1.486633,4.4e-4 2.252474,6.6e-4 1.50625,4.5e-4 3.012499,8.9e-4 4.518749,10e-4 1.120728,3.4e-4 1.120728,3.4e-4 2.264098,6.8e-4 12.095925,0.004 24.19179,0.0214 36.287691,0.0447 12.420076,0.0237 24.840121,0.0362 37.260219,0.0374 6.9727375,9.1e-4 13.945396,0.007 20.9181114,0.0248 6.5621896,0.017 13.1242576,0.0186 19.6864716,0.01 2.406999,-7.7e-4 4.814005,0.004 7.220984,0.0134 3.289976,0.0127 6.579425,0.007 9.869398,-0.004 0.949048,0.008 1.898096,0.0161 2.875904,0.0244 7.150131,-0.0529 13.2252,-1.40517 19.471859,-4.95441 5.13636,-5.56439 8.361773,-12.94699 8.387014,-20.5434 0.0051,-0.81404 0.01015,-1.62809 0.01538,-2.4668 4.98e-4,-0.8888 9.95e-4,-1.7776 0.0015,-2.69334 0.0044,-0.94853 0.0088,-1.89707 0.01328,-2.87435 0.01338,-3.18652 0.01957,-6.37302 0.02569,-9.55956 0.0079,-2.28153 0.01617,-4.56305 0.02478,-6.84458 0.02621,-7.49946 0.04153,-14.99894 0.05579,-22.49844 0.0054,-2.5815 0.01074,-5.163 0.01613,-7.7445 0.02163,-10.73767 0.04051,-21.47534 0.05162,-32.21303 0.0029,-2.78507 0.0059,-5.57014 0.0089,-8.35521 0.0011,-1.03829 0.0011,-1.03829 0.0023,-2.09755 0.01265,-11.20993 0.04587,-22.41971 0.08754,-33.62957 0.04246,-11.51613 0.06558,-23.03216 0.07121,-34.54838 0.0037,-6.46306 0.01568,-12.92585 0.0481,-19.38883 0.03007,-6.08133 0.0364,-12.16224 0.02462,-18.24363 -2.21e-4,-2.22963 0.0081,-4.45928 0.02565,-6.68884 0.02271,-3.04937 0.01439,-6.09716 -0.0015,-9.14653 0.01388,-0.87765 0.02776,-1.7553 0.04207,-2.65954 -0.08216,-6.42729 -1.925909,-11.00353 -5.650069,-16.24142 -2.218206,-2.18315 -2.218206,-2.18315 -4.625,-3.5 -0.755391,-0.46406 -1.510781,-0.92813 -2.289063,-1.40625 -3.237278,-1.69745 -5.816986,-2.21986 -9.415163,-2.23076 -0.889306,-0.005 -1.778611,-0.0102 -2.694865,-0.0154 -1.466995,-7.5e-4 -1.466995,-7.5e-4 -2.963626,-0.002 -1.557337,-0.007 -1.557337,-0.007 -3.146135,-0.0133 -3.495993,-0.0134 -6.991961,-0.0196 -10.487974,-0.0257 -2.499747,-0.008 -4.999493,-0.0162 -7.499237,-0.0248 -7.513865,-0.024 -15.027726,-0.0392 -22.5416164,-0.0521 -2.1224575,-0.004 -4.2449143,-0.008 -6.36737112,-0.0118 -13.18181348,-0.0252 -26.36362848,-0.0473 -39.54546048,-0.0597 -3.053036,-0.003 -6.106072,-0.006 -9.159108,-0.009 -1.138218,-0.001 -1.138218,-0.001 -2.29943,-0.002 -12.290575,-0.0127 -24.581006,-0.0459 -36.871514,-0.0875 -12.620122,-0.0424 -25.240162,-0.066 -37.860342,-0.0712 -7.0851,-0.003 -14.16996,-0.0152 -21.25499,-0.0481 -6.66572,-0.0309 -13.33097,-0.0364 -19.99676,-0.0246 -2.44613,2.2e-4 -4.89228,-0.008 -7.33834,-0.0257 -3.34093,-0.0226 -6.68043,-0.0144 -10.02137,10e-4 -0.96684,-0.0139 -1.93368,-0.0278 -2.92982,-0.0421 -8.04478,0.0942 -14.0657,2.95301 -19.13032,9.33757 z"
       fill="#000000"
       transform="translate(980.5625,691.1875)"
       id="path4" />
    <path
       d="m 0,0 c 1.8919066,-0.00761181 1.8919066,-0.00761181 3.8220336,-0.0153774 1.4127322,-6.0173e-4 2.8254644,-0.0011008 4.2381967,-0.0015084 1.4906288,-0.0040131 2.9812567,-0.0084511 4.4718827,-0.01327955 4.111267,-0.01198849 8.222522,-0.01761921 12.333802,-0.02218116 4.428214,-0.0059475 8.856413,-0.0175594 13.284617,-0.02829051 10.701544,-0.02454316 21.403092,-0.0391537 32.104656,-0.05206007 3.02115,-0.00371 6.042301,-0.007684 9.063451,-0.0117527 18.749576,-0.0252343 37.499151,-0.0472936 56.248741,-0.0597281 4.34473,-0.00293 8.68945,-0.005891 13.03417,-0.008905 1.0799,-7.4605e-4 2.1598,-0.001492 3.27242,-0.002261 17.50075,-0.0126585 35.00141,-0.0458871 52.50212,-0.0875411 17.95599,-0.0423883 35.91193,-0.0659842 53.86797,-0.0712133 10.08638,-0.003418 20.17261,-0.0152136 30.25894,-0.0481027 8.5886,-0.027959 17.17701,-0.0390181 25.76566,-0.0278045 4.38359,0.005197 8.76677,0.002231 13.1503,-0.0224655 4.01218,-0.022416 8.02367,-0.0218129 12.03585,-0.002796 1.45227,0.002811 2.90458,-0.002858 4.35678,-0.0178129 12.20861,-0.11804589 12.20861,-0.11804589 16.14627,3.04309479 3.02419,3.6231715 3.50025,5.7885521 3.44838,10.5518431 -0.45297,3.189114 -2.02827,4.838955 -4.28906,7.035156 -3.49749,2.331657 -4.87186,2.252699 -9.00588,2.260063 -1.89489,0.0106 -1.89489,0.0106 -3.82806,0.02141 -1.40979,-0.0023 -2.81958,-0.0047 -4.22937,-0.0073 -1.4915,0.0044 -2.98299,0.0098 -4.47447,0.01587 -4.10903,0.01422 -8.21798,0.01584 -12.32703,0.0154 -4.42752,0.0016 -8.85501,0.01471 -13.28252,0.02619 -9.68586,0.02287 -19.37171,0.03077 -29.0576,0.03583 -6.04532,0.0033 -12.09064,0.0098 -18.13596,0.017 -16.73048,0.01957 -33.46096,0.03597 -50.19145,0.03888 -1.60674,2.81e-4 -1.60674,2.81e-4 -3.24594,5.68e-4 -2.17161,3.67e-4 -4.34321,7.3e-4 -6.51481,0.0011 -1.07802,1.82e-4 -2.15604,3.65e-4 -3.26673,5.54e-4 -1.619,2.7e-4 -1.619,2.7e-4 -3.2707,5.47e-4 -17.49423,0.0035 -34.98834,0.03057 -52.48253,0.06795 -17.95151,0.03805 -35.90296,0.05745 -53.854504,0.05775 -10.083009,5.85e-4 -20.165871,0.0091 -30.248841,0.038 -8.584927,0.02447 -17.169653,0.03183 -25.754605,0.01675 -4.381562,-0.0072 -8.762728,-0.0062 -13.144247,0.01641 -4.010297,0.02053 -8.019893,0.01804 -12.030182,-0.0029 -1.4515603,-0.0035 -2.9031708,0.0015 -4.3546656,0.0157 -12.199288,0.112007 -12.199288,0.112007 -16.1401756,-2.986694 C -13.077766,15.671327 -13.412868,12.349115 -12.882824,7.1370144 -9.4766589,1.430417 -6.4274247,0.01367218 0,0 Z"
       fill="#000000"
       transform="translate(462.88282,516.86299)"
       id="path5" />
    <path
       d="m 0,0 c 1.2582864,-0.00644889 2.5165728,-0.01289778 3.8129891,-0.0195421 1.3989876,0.0029424 2.7979748,0.0060778 4.1969615,0.0093855 1.4841066,-0.0037355 2.9682114,-0.0083366 4.4523124,-0.01373065 4.083968,-0.01225808 8.167854,-0.01196624 12.251837,-0.0096112 4.402279,4.0746e-4 8.804533,-0.01062413 13.2068,-0.02011513 8.626886,-0.01662616 17.253745,-0.02211027 25.880645,-0.02322476 7.010727,-9.4967e-4 14.021446,-0.0050559 21.03217,-0.01140125 19.867485,-0.0176165 39.734955,-0.02683818 59.602455,-0.02533905 1.60722,1.1987e-4 1.60722,1.1987e-4 3.24691,2.4216e-4 1.07278,8.176e-5 2.14557,1.6352e-4 3.25086,2.4776e-4 17.39069,8.1311e-4 34.78129,-0.0183297 52.17195,-0.0465245 17.84757,-0.0287077 35.69511,-0.0425415 53.54271,-0.0408124 10.02373,6.6461e-4 20.04736,-0.004859 30.07106,-0.0263561 8.53365,-0.018184 17.06717,-0.022582 25.60082,-0.008981 4.35519,0.006544 8.71012,0.006597 13.06529,-0.0107065 3.98612,-0.0156744 7.97178,-0.0129253 11.95789,0.004568 1.44278,0.003082 2.88559,-6.0896e-4 4.32833,-0.0117202 13.33031,-0.0958716 13.33031,-0.0958716 18.23033,4.51089032 2.35951,2.3595118 2.34409,3.0192563 2.4375,6.2500001 -0.0678,3.501712 -0.54327,5.511516 -2.75,8.25 -3.8681,3.598232 -6.56836,3.625857 -11.66214,3.634221 -1.88444,0.0067 -1.88444,0.0067 -3.80696,0.01351 -1.40193,-9e-5 -2.80386,-2.8e-4 -4.20579,-5.59e-4 -1.48324,0.0033 -2.96648,0.007 -4.44972,0.01114 -4.08621,0.01003 -8.1724,0.01374 -12.25861,0.01639 -4.40298,0.0039 -8.80594,0.01348 -13.2089,0.02221 -10.63736,0.01977 -21.27471,0.02983 -31.91208,0.03873 -5.00661,0.0044 -10.01322,0.0097 -15.01983,0.01499 -16.63783,0.01701 -33.27567,0.03151 -49.91351,0.03875 -4.31843,0.0019 -8.63686,0.0038 -12.95529,0.0058 -1.61002,7.26e-4 -1.61002,7.26e-4 -3.25258,0.0015 -17.39721,0.0083 -34.79435,0.03365 -52.19153,0.06611 -17.85206,0.03304 -35.70409,0.05108 -53.556181,0.05428 -10.027099,0.0022 -20.054098,0.01095 -30.081167,0.03646 -8.537324,0.02167 -17.074524,0.02978 -25.611873,0.02003 -4.35721,-0.0046 -8.714163,-0.0026 -13.071337,0.01676 -3.988003,0.01756 -7.97556,0.0167 -11.963567,0.0011 -1.4434856,-0.0024 -2.8870013,0.002 -4.3304401,0.01383 -13.3952893,0.102925 -13.3952893,0.102925 -18.2359999,-4.505211 -2.585365,-3.407982 -2.437819,-6.840715 -2,-11.0000001 C -10.396148,1.3083711 -6.8054175,0.00880566 0,0 Z"
       fill="#000000"
       transform="translate(464.09768,398.74273)"
       id="path6" />
    <path
       d="M 0,0 C 0.33,0.99 0.66,1.98 1,3 -0.21484375,4.8242187 -0.21484375,4.8242187 -1.9375,6.6875 -2.5033984,7.3101172 -3.0692969,7.9327344 -3.6523438,8.5742188 -4.0970703,9.0447266 -4.5417969,9.5152344 -5,10 -5.66,9.34 -6.32,8.68 -7,8 -4.69,5.36 -2.38,2.72 0,0 Z"
       fill="#000000"
       transform="translate(196,151)"
       id="path7" />
    <path
       d="M 0,0 C -2.7622328,2.7622328 -5.2070662,2.5785629 -9,3 -9.33,2.34 -9.66,1.68 -10,1 -3.7142857,-1.4285714 -3.7142857,-1.4285714 0,0 Z"
       fill="#000000"
       transform="translate(886,672)"
       id="path8" />
    <path
       d="M 0,0 C 0.66,0.99 1.32,1.98 2,3 1.01,3.33 0.02,3.66 -1,4 -1.33,5.65 -1.66,7.3 -2,9 -2.66,9 -3.32,9 -4,9 -2.9412493,5.5968726 -1.9909785,2.9864677 0,0 Z"
       fill="#000000"
       transform="translate(757,818)"
       id="path9" />
  </g>
</svg>
