<?xml version="1.0" encoding="UTF-8"?>
<svg version="1.1" xmlns="http://www.w3.org/2000/svg" width="1254" height="1254" viewBox="0 0 1254 1254">
  <defs>
    <mask id="transparent-cutouts" maskUnits="userSpaceOnUse">
      <rect x="0" y="0" width="1254" height="1254" fill="white"/>
      <path d="M0 0 C15.42563419 12.15143381 24.72478645 28.51708503 27.58758545 47.84140015 C28.62469037 56.87570045 28.24040522 66.06755254 28.1953125 75.14453125 C28.19157568 77.36797457 28.18873188 79.59141955 28.18673706 81.81486511 C28.17915324 87.6262376 28.15955064 93.43750784 28.1373291 99.24884033 C28.11675672 105.19517637 28.10771113 111.14152915 28.09765625 117.08789062 C28.07629915 128.72530499 28.04222765 140.36264394 28 152 C13.29174832 152.0936276 -1.41646368 152.16406914 -16.12495327 152.20724869 C-22.95506721 152.22783465 -29.78499549 152.25587867 -36.61499023 152.30175781 C-43.20910781 152.34603121 -49.80308355 152.36915339 -56.39735603 152.37950897 C-58.91029962 152.38688673 -61.42323293 152.40129373 -63.93609428 152.42292023 C-67.46210195 152.45205306 -70.98731863 152.45595171 -74.51342773 152.45410156 C-75.54705444 152.46848267 -76.58068115 152.48286377 -77.64562988 152.49768066 C-85.99678706 152.45041756 -93.25320311 150.3282373 -99.58984375 144.609375 C-106.29474626 136.95724249 -109.23127978 128.51819193 -109.29052734 118.40673828 C-109.29724457 117.68199814 -109.30396179 116.957258 -109.31088257 116.21055603 C-109.32977004 113.83040359 -109.33378349 111.4505351 -109.3359375 109.0703125 C-109.34237697 107.39468272 -109.34910615 105.71905403 -109.35610962 104.04342651 C-109.36806309 100.53152875 -109.37179295 97.01972915 -109.37060547 93.5078125 C-109.37040357 89.05567774 -109.39757934 84.60419061 -109.43214989 80.15220833 C-109.45464616 76.68756354 -109.45843598 73.22306827 -109.45738602 69.758358 C-109.45971286 68.12006294 -109.46836709 66.48176183 -109.48405075 64.84354019 C-109.6823222 41.97325975 -103.94480927 22.52888505 -87.76171875 5.66796875 C-63.57272281 -17.5708866 -26.82956877 -20.25736433 0 0 Z " fill="black" transform="translate(299,159)"/>
      <path d="M0 0 C1.0621875 0.3403125 2.124375 0.680625 3.21875 1.03125 C15.89706306 5.49884603 26.50833851 12.54101204 36 22 C37.04607422 23.01126953 37.04607422 23.01126953 38.11328125 24.04296875 C60.88035234 47.60578213 56 79.75605303 56 111 C2.87 111 -50.26 111 -105 111 C-105 53.95984108 -105 53.95984108 -98.25 41.625 C-97.89856934 40.95710449 -97.54713867 40.28920898 -97.18505859 39.60107422 C-94.30778875 34.27053959 -91.08827133 29.48609483 -87 25 C-86.28457031 24.19304688 -85.56914063 23.38609375 -84.83203125 22.5546875 C-63.74158737 0.05362666 -29.58802028 -9.6550382 0 0 Z " fill="black" transform="translate(937,691)"/>
    </mask>
  </defs>
  <g mask="url(#transparent-cutouts)">
    <path d="M0 0 C2.560607 -0.00345908 5.1212125 -0.00822533 7.68181491 -0.01418173 C13.23675003 -0.02497878 18.79159756 -0.02471162 24.34653664 -0.01704025 C32.60731346 -0.00566332 40.86801679 -0.01150937 49.12879316 -0.02066517 C63.88614203 -0.03644318 78.64345188 -0.03510068 93.40080444 -0.02642844 C106.31787395 -0.01887517 119.23492917 -0.01691473 132.15200043 -0.02049637 C133.00956104 -0.02072552 133.86712166 -0.02095468 134.75066896 -0.02119078 C138.23202507 -0.02212483 141.71338118 -0.02308004 145.19473728 -0.02407007 C177.8422898 -0.03324367 210.48981751 -0.02493267 243.1373662 -0.00877938 C272.12070454 0.00545195 301.10400332 0.00418743 330.08734131 -0.01016235 C362.66999027 -0.02624035 395.25261731 -0.03258794 427.83526969 -0.02332556 C431.31144189 -0.02236346 434.7876141 -0.02142493 438.26378632 -0.02049637 C439.11967207 -0.02025914 439.97555782 -0.0200219 440.85737951 -0.01977748 C453.76119045 -0.01637038 466.66498551 -0.02034608 479.56879425 -0.02793503 C494.24958417 -0.03652614 508.93032906 -0.03434018 523.6111134 -0.0180928 C531.81935603 -0.00930736 540.02750105 -0.00867483 548.23574107 -0.02003132 C554.37566158 -0.02758646 560.51546798 -0.01934593 566.6553745 -0.0051076 C569.13104435 -0.00176927 571.60672734 -0.00343237 574.08238867 -0.01073496 C604.19436363 -0.09271165 630.088685 5.71849764 652.15911865 27.37313843 C671.82932913 47.73934055 678.31290664 73.26719183 678.21603394 100.79385376 C678.21690724 102.64799679 678.21866053 104.50213957 678.22121227 106.35628104 C678.22566517 111.4257043 678.21771051 116.49504238 678.20765615 121.56445479 C678.19899419 127.04077756 678.20194375 132.51709577 678.20346069 137.99342346 C678.20450781 147.47305686 678.19824933 156.95266266 678.18698502 166.43228912 C678.17070948 180.13812189 678.16551991 193.84394135 678.16300903 207.54978272 C678.15863516 229.78827164 678.14535161 252.02674767 678.12640381 274.26522827 C678.10802247 295.86386031 678.09386136 317.46248841 678.08538818 339.06112671 C678.08512513 339.72739139 678.08486208 340.39365607 678.08459106 341.08011058 C678.08169224 348.4352374 678.07890859 355.79036425 678.07617211 363.14549112 C678.05544918 418.55732131 678.02008301 473.96913517 677.9755249 529.38095093 C671.0455249 528.06095093 664.1155249 526.74095093 656.9755249 525.38095093 C656.97405834 523.11167441 656.97259178 520.8423979 656.97108078 518.50435543 C656.93563608 464.61626443 656.87910636 410.72822692 656.79760395 356.84018513 C656.78758669 350.20509231 656.77774253 343.56999924 656.76800537 336.93490601 C656.76654766 335.94452512 656.76654766 335.94452512 656.7650605 334.93413653 C656.73270722 312.88890786 656.71449356 290.8436959 656.70233068 268.79844712 C656.68991243 246.85689333 656.66239574 224.91539577 656.62091184 202.97387749 C656.59579585 189.43870098 656.58240625 175.90361777 656.58409533 162.36841763 C656.58412512 153.08231913 656.56946715 143.79631557 656.54336062 134.51025408 C656.52873718 129.15555685 656.52049253 123.8010543 656.52972221 118.44634056 C656.53804206 113.53623433 656.52776419 108.62651831 656.50318828 103.71646977 C656.49752985 101.94771714 656.49848071 100.17892721 656.50701246 98.4101861 C656.60108632 77.06502998 651.17948592 58.17061831 635.9755249 42.38095093 C628.68481007 35.36067992 620.45416716 29.98891658 610.9755249 26.38095093 C610.09946606 26.04604275 609.22340722 25.71113457 608.32080114 25.36607766 C596.97723846 21.59074142 585.98409156 21.83315622 574.14608765 21.89993286 C571.83648915 21.89818655 569.52689143 21.89468054 567.21729791 21.8895762 C560.89814967 21.88066427 554.57927442 21.89658797 548.26016092 21.91668844 C542.13726712 21.93420147 536.01437003 21.9288426 529.89145881 21.92596107 C517.37466109 21.92071859 504.85794814 21.93402104 492.34117508 21.9580307 C479.95473434 21.98172925 467.56832894 21.99710062 455.18186569 22.00144196 C454.02501649 22.00185439 454.02501649 22.00185439 452.8447966 22.00227516 C448.92781703 22.00362857 445.01083744 22.00483408 441.09385781 22.00598267 C413.37698065 22.01437593 385.66014956 22.0413019 357.94329834 22.07919312 C331.02305343 22.11595272 304.10282115 22.14427645 277.18255615 22.16122437 C275.93703449 22.16201352 275.93703449 22.16201352 274.66635077 22.16281862 C266.32737178 22.16809287 257.9883927 22.1731961 249.64941353 22.17817406 C232.66317646 22.18831789 215.67694022 22.1996029 198.69070435 22.21157837 C197.51930144 22.21240211 197.51930144 22.21240211 196.32423383 22.21324249 C144.20797811 22.25002182 92.09174885 22.31348329 39.9755249 22.38095093 C41.21630295 23.60119965 41.21630295 23.60119965 42.48214722 24.84609985 C43.57661475 25.92949735 44.67091544 27.0130634 45.76507568 28.09677124 C46.30920609 28.63101715 46.85333649 29.16526306 47.41395569 29.71569824 C51.56219753 33.83421558 54.92810669 38.05216815 57.8505249 43.13095093 C58.52329468 44.26693726 58.52329468 44.26693726 59.20965576 45.4258728 C67.78735881 60.35334443 71.2890578 74.99362653 71.23165131 92.14265537 C71.23423588 93.52275269 71.23769565 94.90284859 71.24194485 96.28294179 C71.25108237 100.06830008 71.24785933 103.85356124 71.24259377 107.63892314 C71.2390768 111.75980769 71.2471824 115.88067217 71.25381613 120.00155061 C71.26385285 127.22161137 71.26653539 134.44164566 71.26439476 141.66171265 C71.26125818 152.39814146 71.26958754 163.13453996 71.28034987 173.87096275 C71.29817246 191.93420333 71.30702111 209.99743766 71.31105042 228.06068611 C71.3166732 252.72624893 71.33533844 277.3917897 71.35749096 302.05734258 C71.36779344 313.54798311 71.37745757 325.03862418 71.38695526 336.5292654 C71.38790677 337.67955233 71.38885828 338.82983926 71.38983862 340.01498337 C71.41233652 367.39225959 71.42858246 394.76953896 71.44378662 422.14682007 C71.44445417 423.3446679 71.44512173 424.54251573 71.44580951 425.77666198 C71.45663445 445.21615518 71.4670802 464.65564858 71.47747815 484.09514201 C71.48722603 502.3119124 71.4971124 520.52868271 71.50726318 538.74545288 C71.50792806 539.942811 71.50859294 541.14016912 71.50927796 542.37381082 C71.52448882 569.70568632 71.54148527 597.03755912 71.56409454 624.36942959 C71.5650438 625.51784718 71.56599306 626.66626478 71.56697108 627.84948291 C71.57648812 639.31380921 71.58631801 650.7781352 71.59661504 662.24246082 C71.61867645 686.88190154 71.63524518 711.52132868 71.64074059 736.16077901 C71.64482882 754.11888814 71.65571178 772.07698195 71.67371833 790.03508265 C71.68418001 800.70892703 71.68898165 811.38274009 71.68581815 822.0565893 C71.68424354 829.18261392 71.68985079 836.30860931 71.70132916 843.4346248 C71.70766017 847.49714113 71.71080738 851.55959201 71.70516127 855.62211085 C71.70008051 859.31879728 71.70419093 863.01535583 71.7155882 866.71202714 C71.71925002 868.66586651 71.71313479 870.61971676 71.70660645 872.57354864 C71.73689906 879.11882877 72.17383727 885.07906475 73.9755249 891.38095093 C74.17709415 892.11666935 74.3786634 892.85238776 74.58634081 893.61040068 C79.59628377 911.16393076 91.9636116 926.44540267 107.63568115 935.57626343 C127.72579931 946.63488255 152.7744923 949.27722549 174.98724365 943.35751343 C196.65177582 936.27760096 213.51672192 925.51465983 224.7567749 905.15438843 C231.25319999 891.81124083 232.51148239 879.44148404 232.47650146 864.81820679 C232.47552782 861.95203513 232.51729408 859.08853594 232.5614624 856.2227478 C232.65227469 842.28996838 230.70351686 831.82497153 222.30755615 820.28329468 C220.9755249 818.38095093 220.9755249 818.38095093 220.04974365 816.25985718 C218.68907341 813.87992122 217.45366074 813.4716958 214.9755249 812.38095093 C213.64267404 811.42967169 212.33031771 810.44913622 211.0380249 809.44345093 C198.41763944 799.63317117 185.33227339 798.82363837 169.9755249 798.88095093 C166.68328151 798.89302906 163.39262836 798.87932749 160.1005249 798.84970093 C159.3577832 798.86102051 158.6150415 798.87234009 157.84979248 798.88400269 C154.17496669 798.84818278 152.14696577 798.49179631 149.0302124 796.47665405 C146.25070053 793.64165763 145.76993927 791.94543368 145.6005249 788.06845093 C145.55154053 787.30919312 145.50255615 786.5499353 145.4520874 785.76766968 C146.26812816 782.04676741 148.00502614 780.71547633 150.9755249 778.38095093 C154.04090589 777.66062043 157.02152933 777.70304572 160.15911865 777.75204468 C161.05107437 777.74963272 161.94303009 777.74722076 162.86201477 777.74473572 C164.75072672 777.74571385 166.63946744 777.75909949 168.52801514 777.7840271 C171.37287938 777.81797191 174.21456845 777.80477603 177.05950928 777.7852478 C200.05094718 777.80200532 217.24456208 785.20784532 234.0380249 801.00595093 C247.60030691 814.90518404 253.06435578 830.93223312 253.21380615 849.88095093 C253.2218779 850.87489868 253.22994965 851.86884644 253.23826599 852.89291382 C253.25203706 854.99063409 253.26279009 857.08837611 253.27069092 859.18612671 C253.28216957 861.30175486 253.30255543 863.417355 253.33221436 865.5328064 C253.68199274 890.54880046 248.5257613 911.30343051 232.9755249 931.38095093 C228.3555249 936.00095093 223.7355249 940.62095093 218.9755249 945.38095093 C296.1955249 945.71095093 373.4155249 946.04095093 452.9755249 946.38095093 C453.59770599 951.98058069 454.09626182 956.91094412 454.0380249 962.44345093 C454.02900146 963.56880249 454.01997803 964.69415405 454.01068115 965.85360718 C453.99327881 967.10464233 453.99327881 967.10464233 453.9755249 968.38095093 C414.02540792 968.4726379 374.07530472 968.54305626 334.12510342 968.58521225 C329.40157838 968.59021468 324.67805354 968.59539201 319.95452881 968.60067749 C319.01421613 968.60172673 318.07390345 968.60277597 317.10509644 968.60385701 C301.90795407 968.62123108 286.71087262 968.65275213 271.5137663 968.68956211 C255.90369189 968.72705518 240.29364924 968.74920441 224.68353164 968.75730491 C215.06223331 968.76277538 205.44110726 968.7800119 195.81986199 968.8126168 C189.20952103 968.83386813 182.59926826 968.84012713 175.98889567 968.83495644 C172.18309706 968.83241105 168.37759807 968.8361295 164.57185364 968.85777283 C130.96449446 969.03930731 102.56308051 963.15461279 77.3505249 939.25595093 C71.22484384 932.95322706 66.55740533 925.85055275 61.9755249 918.38095093 C61.4495874 917.54434937 60.9236499 916.7077478 60.3817749 915.84579468 C49.26374382 897.16885831 49.54149177 875.99975496 49.61476135 855.02745056 C49.61512465 852.23850941 49.61094926 849.44957906 49.60699385 846.66064113 C49.60080211 840.61346648 49.60565322 834.5663808 49.61790848 828.51921654 C49.63608041 819.52744844 49.63690971 810.53573595 49.63428251 801.54395284 C49.63034868 786.41533293 49.64033509 771.28675244 49.65833473 756.158144 C49.6761034 741.18519457 49.68763612 726.21226158 49.69089317 711.23930168 C49.69109939 710.30732139 49.69130561 709.37534111 49.69151808 708.41511899 C49.69253312 703.68180316 49.69343726 698.94848731 49.69429871 694.21517145 C49.70059509 660.71434914 49.72079361 627.21354827 49.74920654 593.71273804 C49.77677243 561.17302565 49.7980171 528.63331914 49.81072998 496.09359741 C49.81112456 495.09007068 49.81151914 494.08654394 49.81192567 493.0526073 C49.81588133 482.97451349 49.81970876 472.89641964 49.82344225 462.81832575 C49.8310503 442.28922796 49.83951406 421.76013056 49.84849548 401.23103333 C49.84911329 399.81528128 49.84911329 399.81528128 49.84974357 398.37092819 C49.87733208 335.37426019 49.9248661 272.37760408 49.9755249 209.38095093 C49.42667318 209.38371631 48.87782146 209.38648169 48.31233788 209.38933086 C34.8967221 209.45586857 21.48113563 209.50517356 8.06538963 209.53638744 C1.57736402 209.55199348 -4.91054183 209.57313887 -11.39849854 209.60726929 C-17.66846253 209.64004372 -23.93831185 209.65784194 -30.20835495 209.66558266 C-32.59155454 209.67109383 -34.97474839 209.68185515 -37.35789871 209.6981411 C-58.68766306 209.83800844 -75.79171501 208.82945689 -91.9385376 193.57235718 C-104.78542918 179.96144341 -107.66484195 162.21767643 -107.4854126 144.31845093 C-107.48301889 142.71290232 -107.4821248 141.10735085 -107.4826355 139.50180054 C-107.4795332 136.16022833 -107.4631703 132.81909295 -107.43609619 129.47763062 C-107.40212075 125.23517666 -107.39446948 120.99319975 -107.39598656 116.75062561 C-107.39543775 113.44222622 -107.38438973 110.13392714 -107.36998367 106.82556152 C-107.36370533 105.26296747 -107.35969831 103.70036229 -107.35819626 102.13775635 C-107.29846141 72.49115295 -99.33510116 48.13586637 -78.86431885 26.08798218 C-73.71433122 21.17884679 -67.97376273 17.25572337 -62.0244751 13.38095093 C-61.24330322 12.86661499 -60.46213135 12.35227905 -59.6572876 11.82235718 C-52.99871612 7.78952426 -45.47652567 5.49236109 -38.0244751 3.38095093 C-37.23990126 3.1297837 -36.45532742 2.87861647 -35.64697862 2.61983812 C-23.96485871 -0.65234355 -12.02954323 -0.03534518 0 0 Z " fill="#000000" transform="translate(276.02447509765625,123.61904907226563)"/>
    <path d="M0 0 C17.29092224 14.74642171 30.83495977 36.29563555 33.23980713 59.21820068 C33.60012567 63.94661674 33.55901332 68.67060675 33.53515625 73.41015625 C33.53303383 75.02246376 33.53303383 75.02246376 33.53086853 76.66734314 C33.52531151 80.06992483 33.51276713 83.47243851 33.5 86.875 C33.49497944 89.1946605 33.49041751 91.51432204 33.48632812 93.83398438 C33.47535619 99.49351243 33.4586614 105.15300135 33.4375 110.8125 C34.18733154 110.79155273 34.93716309 110.77060547 35.7097168 110.74902344 C55.50825706 110.26824739 70.89799651 110.11821033 86.1875 124.0625 C94.5315357 132.83244936 96.74799899 143.9676456 96.69819641 155.65325928 C96.70202196 156.61534624 96.70584751 157.57743321 96.70978898 158.56867433 C96.72006875 161.77728454 96.71613634 164.98571412 96.7121582 168.19433594 C96.71650751 170.501141 96.72169139 172.80794462 96.72764587 175.11474609 C96.74102504 181.37109321 96.74161562 187.62737988 96.73908257 193.88373852 C96.73801191 199.1121444 96.74289879 204.34053809 96.747688 209.56894135 C96.7594138 222.61344131 96.75856029 235.65790689 96.75213119 248.70240906 C96.74696573 260.01024941 96.75820939 271.31800351 96.77722941 282.62582681 C96.79664091 294.25623504 96.80456695 305.88659885 96.80110615 317.51702332 C96.79929592 324.03872072 96.80190349 330.56033916 96.81582069 337.08202362 C96.82842561 343.21834536 96.82642959 349.35449502 96.81340981 355.49081421 C96.81105011 357.7369111 96.81375682 359.9830202 96.82203293 362.22910309 C96.88039012 379.30459135 96.34372368 394.86832234 84.5625 408.5 C76.97218013 415.56036511 65.24554871 420.92250968 54.8733511 420.94672108 C53.53712001 420.95340784 53.53712001 420.95340784 52.17389435 420.96022969 C51.20445217 420.96004533 50.23501 420.95986097 49.2361908 420.95967102 C48.19907961 420.96334771 47.16196842 420.9670244 46.09342963 420.9708125 C42.61298128 420.98183875 39.1325628 420.98569141 35.65209961 420.98950195 C33.15854803 420.99576742 30.66499738 421.0024143 28.17144775 421.00941467 C20.68508944 421.02863211 13.19873906 421.03924158 5.71236333 421.04814246 C2.1828961 421.05253041 -1.34656964 421.05789592 -4.87603569 421.06313133 C-16.61569564 421.08014079 -28.35535468 421.09463356 -40.09502506 421.10188007 C-43.13944055 421.10378982 -46.18385603 421.10571018 -49.22827148 421.10766602 C-49.98490302 421.10814976 -50.74153455 421.1086335 -51.52109431 421.1091319 C-63.77001739 421.11742704 -76.01884264 421.14275647 -88.26772303 421.17524669 C-100.85627936 421.20836443 -113.44478606 421.2263331 -126.03338617 421.22952431 C-133.09618762 421.23168508 -140.15884643 421.24036995 -147.2216053 421.26598549 C-153.86922548 421.29004037 -160.51663581 421.29348865 -167.16430664 421.28322411 C-169.59907827 421.28272927 -172.03386263 421.2890341 -174.4685955 421.30278015 C-192.09969603 421.39672197 -205.7884331 420.78437773 -219.33984375 408.15625 C-227.83403511 398.99203337 -230.87077781 387.93842854 -230.82992554 375.77482605 C-230.83445665 374.77951396 -230.83898776 373.78420187 -230.84365618 372.7587288 C-230.85629153 369.43179707 -230.85468035 366.10502921 -230.85302734 362.77807617 C-230.85901311 360.38935638 -230.86581876 358.00063853 -230.87338257 355.61192322 C-230.8892107 349.80153196 -230.89549072 343.99119021 -230.89660732 338.18077847 C-230.89755922 333.45562474 -230.90167655 328.73048436 -230.90800858 324.00533485 C-230.92561238 310.59498482 -230.93484875 297.18466674 -230.93334763 283.77430507 C-230.93326772 283.0520632 -230.9331878 282.32982134 -230.93310547 281.58569336 C-230.93302371 280.86256497 -230.93294195 280.13943658 -230.93285771 279.39439521 C-230.93204497 267.67772816 -230.95118165 255.96118971 -230.9793822 244.24455985 C-231.00814079 232.20060863 -231.02192087 220.15672007 -231.02019465 208.11273366 C-231.01953179 201.35631679 -231.02497831 194.60003477 -231.04655075 187.84364891 C-231.06593125 181.48816626 -231.06605853 175.13296811 -231.05151749 168.77747536 C-231.04942812 166.44829518 -231.05413783 164.1190972 -231.0662384 161.78994751 C-231.08171815 158.60334059 -231.07236393 155.41771136 -231.05697632 152.23112488 C-231.06726344 151.31563675 -231.07755057 150.40014861 -231.08814943 149.45691842 C-230.97046652 138.38233266 -226.27710578 129.84109511 -218.78515625 121.9375 C-211.03038332 114.57918785 -201.67470629 110.66653543 -191.046875 110.71484375 C-189.79648437 110.71806641 -188.54609375 110.72128906 -187.2578125 110.72460938 C-185.30488281 110.73717773 -185.30488281 110.73717773 -183.3125 110.75 C-181.33636719 110.75676758 -181.33636719 110.75676758 -179.3203125 110.76367188 C-176.06766259 110.77545684 -172.81510416 110.79190989 -169.5625 110.8125 C-169.57138245 110.22384659 -169.58026489 109.63519318 -169.5894165 109.02870178 C-169.67900201 102.81391268 -169.73868696 96.59931147 -169.78222656 90.3840332 C-169.80214693 88.07503795 -169.82929324 85.76609183 -169.86425781 83.45727539 C-170.30625269 53.48612256 -163.65890135 29.34469679 -142.79296875 7.078125 C-104.30237128 -32.01915439 -42.28097287 -34.78256802 0 0 Z M-207 139.5 C-207.70962891 140.37205078 -207.70962891 140.37205078 -208.43359375 141.26171875 C-211.32023966 145.22711122 -210.71709572 149.38962897 -210.72312927 154.10377502 C-210.72821709 155.07918635 -210.73330491 156.05459767 -210.73854691 157.05956692 C-210.75432334 160.34903597 -210.76281017 163.63848299 -210.77124023 166.92797852 C-210.78077461 169.27817425 -210.79066559 171.62836856 -210.80088806 173.9785614 C-210.82960981 181.04789952 -210.84936429 188.11724307 -210.86628041 195.18661848 C-210.87107523 197.18369266 -210.87608003 199.18076633 -210.88108563 201.17783999 C-210.91187161 213.58081527 -210.93874659 225.98379325 -210.95550442 238.386796 C-210.95945391 241.26054963 -210.96345689 244.13430318 -210.9675293 247.00805664 C-210.96853766 247.72231239 -210.96954602 248.43656814 -210.97058494 249.172468 C-210.9875805 260.73498295 -211.02867556 272.29728345 -211.07955229 283.85969377 C-211.13136595 295.73284019 -211.16045181 307.60587646 -211.1677013 319.47913498 C-211.17235944 326.14456734 -211.18776029 332.80969452 -211.2274456 339.47503853 C-211.26430361 345.74845289 -211.27272378 352.02126881 -211.25943947 358.29477119 C-211.25949343 360.59536126 -211.26979574 362.89597778 -211.2911911 365.19646835 C-211.3188818 368.34247945 -211.3093585 371.48630957 -211.29075623 374.63233948 C-211.30755115 375.53858726 -211.32434608 376.44483503 -211.34164995 377.37854487 C-211.24028622 384.2585119 -208.92027587 388.54951974 -204.5625 393.8125 C-202.43917273 395.95182971 -202.43917273 395.95182971 -200.3125 397.3125 C-199.31476562 398.00859375 -199.31476562 398.00859375 -198.296875 398.71875 C-195.44817173 400.51522954 -193.76502204 400.9384212 -190.42158413 400.94392776 C-189.54882003 400.94776891 -188.67605594 400.95161005 -187.77684444 400.9555676 C-186.81218118 400.95470112 -185.84751792 400.95383463 -184.85362244 400.95294189 C-183.83329204 400.95591302 -182.81296164 400.95888414 -181.76171213 400.9619453 C-178.32021855 400.97066236 -174.87875963 400.97214309 -171.43725586 400.97363281 C-168.9786878 400.97825897 -166.52012045 400.98328335 -164.06155396 400.98867798 C-157.36499933 401.00182602 -150.66845836 401.00828851 -143.97189403 401.01268864 C-139.78976422 401.01545015 -135.60763674 401.01968745 -131.4255085 401.02419281 C-119.84551991 401.03638928 -108.26553317 401.04668641 -96.68553829 401.0500679 C-95.94400217 401.05028747 -95.20246605 401.05050703 -94.43845913 401.05073325 C-93.69514252 401.05095153 -92.95182591 401.05116981 -92.18598455 401.0513947 C-90.67973514 401.05183817 -89.17348574 401.05228473 -87.66723633 401.05273438 C-86.54650756 401.05306652 -86.54650756 401.05306652 -85.40313781 401.05340537 C-73.3072129 401.05735003 -61.21134835 401.07479219 -49.11544674 401.0980939 C-36.69537126 401.1218267 -24.27532604 401.13427071 -11.85522753 401.13543582 C-4.88249048 401.13635173 2.090168 401.14208249 9.06288338 401.16025543 C15.62507325 401.17729794 22.18714057 401.17889454 28.74935532 401.17011642 C31.15635388 401.16934564 33.56336042 401.17369418 35.97033882 401.18357468 C39.26031545 401.19628613 42.54976379 401.19042118 45.83973694 401.17999268 C46.78878515 401.18804908 47.73783336 401.19610548 48.7156406 401.20440602 C55.8657725 401.15152467 61.94084111 399.79923801 68.1875 396.25 C73.32385989 390.68561011 76.54927274 383.30301299 76.57451439 375.70660114 C76.57958893 374.89255607 76.58466347 374.078511 76.58989179 373.23979789 C76.59038955 372.35099738 76.59088731 371.46219687 76.59140015 370.54646301 C76.5957824 369.59792771 76.60016465 368.6493924 76.6046797 367.6721136 C76.61806152 364.48559 76.62424518 361.29909405 76.63037109 358.11254883 C76.6382725 355.8310229 76.64654148 353.54949822 76.65515137 351.26797485 C76.68136545 343.76850579 76.69667771 336.26903115 76.7109375 328.76953125 C76.7162973 326.18803084 76.72167481 323.60653047 76.72706985 321.02503014 C76.74869704 310.2873581 76.76758518 299.54968931 76.77869225 288.81200123 C76.7816218 286.02692981 76.78458348 283.24185843 76.78759766 280.45678711 C76.78871673 279.41850145 76.78871673 279.41850145 76.78985842 278.35924032 C76.80250872 267.14930693 76.83572931 255.93953227 76.87739949 244.72967307 C76.91985635 233.21353808 76.94298412 221.69750897 76.94861281 210.18129367 C76.95226693 203.71823425 76.96429555 197.25544404 76.99671555 190.79245949 C77.02678408 184.7111257 77.03311197 178.6302242 77.02133179 172.54883194 C77.02111096 170.31920066 77.02942345 168.08954938 77.04698563 165.85998726 C77.06969426 162.81062444 77.06137358 159.76282693 77.04550171 156.7134552 C77.0593838 155.8358083 77.07326588 154.9581614 77.08756864 154.05391914 C77.00541378 147.62662716 75.16166038 143.05038885 71.4375 137.8125 C69.2192935 135.62935405 69.2192935 135.62935405 66.8125 134.3125 C66.05710937 133.8484375 65.30171875 133.384375 64.5234375 132.90625 C61.28615916 131.20880068 58.70645142 130.68638859 55.10827351 130.67548561 C54.21896808 130.67041107 53.32966265 130.66533653 52.41340858 130.66010821 C50.94641408 130.65936157 50.94641408 130.65936157 49.44978333 130.65859985 C47.89244643 130.65202647 47.89244643 130.65202647 46.30364817 130.6453203 C42.80765493 130.63191344 39.3116869 130.62574919 35.81567383 130.61962891 C33.31592698 130.61172945 30.81618127 130.6034606 28.31643677 130.59484863 C20.8025717 130.57087673 13.2887108 130.55569839 5.7748206 130.54278857 C3.65236312 130.5390762 1.5299063 130.535103 -0.59255052 130.5310359 C-13.77436405 130.50579899 -26.95617862 130.48374715 -40.13801098 130.47130775 C-43.19104707 130.46837809 -46.24408313 130.46541642 -49.29711914 130.46240234 C-50.43533681 130.46128327 -50.43533681 130.46128327 -51.59654877 130.46014158 C-63.88712437 130.44748964 -76.17755525 130.41426842 -88.4680632 130.37260051 C-101.08817626 130.33016611 -113.70821526 130.306611 -126.32839948 130.30138719 C-133.4134968 130.29797477 -140.49836795 130.28623983 -147.583395 130.25328445 C-154.24910656 130.22233018 -160.91435522 130.21687548 -167.5801506 130.22866821 C-170.02628231 130.22888934 -172.47243206 130.2205525 -174.9185009 130.20301437 C-178.25943163 130.18036464 -181.59892727 130.18859986 -184.93986511 130.20449829 C-185.90670784 130.1906162 -186.87355056 130.17673412 -187.86969155 130.16243136 C-195.91446833 130.25668465 -201.93539084 133.11543605 -207 139.5 Z " fill="#000000" transform="translate(980.5625,691.1875)"/>
    <path d="M0 0 C1.89190665 -0.00761181 1.89190665 -0.00761181 3.82203364 -0.0153774 C5.23476581 -0.01597913 6.64749802 -0.01647819 8.06023026 -0.01688576 C9.55085911 -0.02089884 11.04148688 -0.02533681 12.53211331 -0.03016531 C16.64337987 -0.0421538 20.75463468 -0.04778452 24.8659153 -0.05234647 C29.29412866 -0.05829393 33.72232791 -0.06990587 38.15053177 -0.08063698 C48.85207574 -0.10518014 59.5536244 -0.11979068 70.25518787 -0.13269705 C73.27633849 -0.1364075 76.29748864 -0.14038085 79.3186388 -0.14444971 C98.06821549 -0.16968406 116.81779288 -0.19174334 135.56738281 -0.20417786 C139.91210559 -0.20710769 144.25682834 -0.21006933 148.60155106 -0.21308327 C149.68144874 -0.21382932 150.76134642 -0.21457537 151.87396827 -0.21534403 C169.3747245 -0.22800252 186.87537923 -0.26123112 204.37608799 -0.3028851 C222.33207802 -0.34527338 240.28801605 -0.36886927 258.24405599 -0.37409842 C268.33044064 -0.37751601 278.41666668 -0.38931206 288.50300217 -0.42220116 C297.09160402 -0.45016014 305.68001477 -0.46121929 314.26865861 -0.4500057 C318.65224536 -0.44480842 323.03543164 -0.44777476 327.41896057 -0.47247124 C331.43113773 -0.49488727 335.442625 -0.49428412 339.45481363 -0.47526737 C340.90708114 -0.47245655 342.35939467 -0.47812586 343.8115879 -0.4930803 C356.02019596 -0.61112619 356.02019596 -0.61112619 359.95786285 2.5500145 C362.98204621 6.17318598 363.45810743 8.33856655 363.40623856 13.10185814 C362.95327427 16.29097153 361.37797174 17.94081287 359.11717606 20.13701439 C355.61969186 22.46867052 354.2453185 22.38971305 350.11130428 22.39707661 C348.21641106 22.40767499 348.21641106 22.40767499 346.28323716 22.41848749 C344.87344691 22.41623592 343.46365696 22.41378939 342.05386734 22.41116905 C340.56237386 22.41561912 339.07088274 22.42093239 337.57939512 22.42703778 C333.470369 22.44125609 329.36141839 22.44288035 325.25237119 22.44244087 C320.82484893 22.44408571 316.39735808 22.45714596 311.96985245 22.46863365 C302.28398619 22.49150854 292.5981418 22.4994069 282.91225219 22.5044601 C276.86692779 22.50771416 270.82160978 22.51423486 264.77628899 22.52146149 C248.04580737 22.54103049 231.31533171 22.557433 214.58483791 22.56033802 C212.97809711 22.56061938 212.97809711 22.56061938 211.33889689 22.56090641 C209.16729407 22.56127267 206.99569124 22.56163637 204.82408842 22.56199753 C203.74606857 22.56218034 202.66804872 22.56236315 201.5573616 22.5625515 C199.93836333 22.56282232 199.93836333 22.56282232 198.28665803 22.56309862 C180.79242632 22.56664125 163.29831764 22.59366786 145.80412861 22.63104939 C127.85262105 22.66910185 109.90117459 22.68849527 91.94962579 22.68879753 C81.86661728 22.68938279 71.7837555 22.69791848 61.70078468 22.7267952 C53.11585828 22.75126816 44.53113213 22.75861967 35.94618031 22.74354767 C31.56461805 22.73636202 27.18345156 22.73730703 22.80193329 22.75995827 C18.7916361 22.78049208 14.78204032 22.77800105 10.7717512 22.75708342 C9.32019074 22.75357772 7.86858024 22.75854426 6.41708543 22.77278786 C-5.78220262 22.88479475 -5.78220262 22.88479475 -9.72309017 19.78609371 C-13.07776552 15.67132678 -13.41286804 12.34911467 -12.88282394 7.13701439 C-9.4766589 1.43041699 -6.42742474 0.01367218 0 0 Z " fill="#000000" transform="translate(462.8828239440918,516.8629856109619)"/>
    <path d="M0 0 C1.25828641 -0.00644889 2.51657282 -0.01289778 3.81298912 -0.0195421 C5.21197669 -0.01659973 6.61096388 -0.01346428 8.00995064 -0.01015663 C9.49405719 -0.01389211 10.97816178 -0.01849322 12.46226323 -0.02388728 C16.54623121 -0.03614536 20.63011745 -0.03585352 24.71409965 -0.03349853 C29.11637945 -0.03309107 33.5186328 -0.04412266 37.92090034 -0.05361366 C46.54778612 -0.07023982 55.17464456 -0.07572393 63.80154501 -0.07683842 C70.81227245 -0.07778809 77.82299086 -0.08189433 84.83371544 -0.08823967 C104.70120368 -0.10585617 124.56867029 -0.11507785 144.43616639 -0.11357872 C146.04338707 -0.11345885 146.04338707 -0.11345885 147.68307686 -0.11333656 C148.75586231 -0.1132548 149.82864776 -0.11317304 150.93394186 -0.1130888 C168.32462754 -0.11227569 185.71522665 -0.13141853 203.10588728 -0.1596133 C220.95346493 -0.18832102 238.80100032 -0.20215477 256.64860165 -0.20042574 C266.67232615 -0.19976113 276.69595989 -0.20528463 286.71966362 -0.22678185 C295.2533109 -0.24496585 303.78682627 -0.24936389 312.3204845 -0.235763 C316.67567104 -0.22921936 321.03060432 -0.22916625 325.38576698 -0.2464695 C329.37188786 -0.26214387 333.35755349 -0.25939478 337.34366287 -0.24190123 C338.78644198 -0.23881885 340.22925458 -0.24251019 341.67199419 -0.25362138 C355.00229894 -0.34949295 355.00229894 -0.34949295 359.90231514 4.25726891 C362.26182693 6.61678069 362.24640929 7.27652525 362.33981514 10.50726891 C362.27204006 14.00898116 361.79655457 16.01878504 359.58981514 18.75726891 C355.72171583 22.35550083 353.02146447 22.38312552 347.92767811 22.39148998 C346.04323507 22.39817675 346.04323507 22.39817675 344.12072247 22.4049986 C342.71879303 22.4049093 341.31686358 22.40471944 339.91493416 22.40443993 C338.43169204 22.4077385 336.94845081 22.41146405 335.46521074 22.41558141 C331.37900453 22.42561009 327.29281302 22.42931958 323.20659626 22.43197072 C318.80362375 22.43587112 314.4006629 22.44544955 309.99769783 22.45418358 C299.36034351 22.47395405 288.72298823 22.48401432 278.08562014 22.49291137 C273.07901015 22.49729276 268.07240123 22.50265991 263.06579208 22.50790024 C246.42795691 22.52491206 229.79012239 22.53940741 213.15227985 22.54664898 C208.83385085 22.54855894 204.51542186 22.55047926 200.19699287 22.55243492 C198.58696645 22.55316053 198.58696645 22.55316053 196.94441424 22.5539008 C179.54720277 22.56220552 162.15005997 22.58755009 144.75287851 22.6200156 C126.90081727 22.65305907 109.04879096 22.67109523 91.19669896 22.67429322 C81.16959998 22.67646069 71.14260115 22.68524402 61.11553192 22.71075439 C52.57820757 22.73242425 44.04100771 22.74053012 35.50365897 22.73078761 C31.14644915 22.72623228 26.78949638 22.72820047 22.43232155 22.74754906 C18.44431867 22.76510568 14.45676181 22.76424453 10.46875469 22.74865177 C9.02526936 22.74626424 7.58175375 22.7506583 6.13831487 22.76248042 C-7.25697441 22.86540467 -7.25697441 22.86540467 -12.09768486 18.25726891 C-14.68305031 14.84928718 -14.53550432 11.4165538 -14.09768486 7.25726891 C-10.39614842 1.30837105 -6.80541755 0.00880566 0 0 Z " fill="#000000" transform="translate(464.0976848602295,398.74273109436035)"/>
    <path d="M0 0 C0.33 0.99 0.66 1.98 1 3 C-0.21484375 4.82421875 -0.21484375 4.82421875 -1.9375 6.6875 C-2.50339844 7.31011719 -3.06929687 7.93273437 -3.65234375 8.57421875 C-4.09707031 9.04472656 -4.54179687 9.51523438 -5 10 C-5.66 9.34 -6.32 8.68 -7 8 C-4.69 5.36 -2.38 2.72 0 0 Z " fill="#000000" transform="translate(196,151)"/>
    <path d="M0 0 C-2.76223278 2.76223278 -5.20706617 2.57856291 -9 3 C-9.33 2.34 -9.66 1.68 -10 1 C-3.71428571 -1.42857143 -3.71428571 -1.42857143 0 0 Z " fill="#000000" transform="translate(886,672)"/>
    <path d="M0 0 C0.66 0.99 1.32 1.98 2 3 C1.01 3.33 0.02 3.66 -1 4 C-1.33 5.65 -1.66 7.3 -2 9 C-2.66 9 -3.32 9 -4 9 C-2.94124926 5.59687262 -1.99097846 2.98646769 0 0 Z " fill="#000000" transform="translate(757,818)"/>
  </g>
</svg>
